<?xml version="1.0" standalone="no"?>
<!DOCTYPE svg PUBLIC "-//W3C//DTD SVG 20010904//EN"
 "http://www.w3.org/TR/2001/REC-SVG-20010904/DTD/svg10.dtd">
<svg version="1.0" xmlns="http://www.w3.org/2000/svg"
 width="512.000000pt" height="472.000000pt" viewBox="0 0 512.000000 472.000000"
 preserveAspectRatio="xMidYMid meet">

<g transform="translate(0.000000,472.000000) scale(0.100000,-0.100000)"
fill="#FFFFFF" stroke="none">
<path d="M443 4690 c-87 -23 -130 -44 -210 -105 -70 -52 -139 -138 -178 -221
-58 -122 -56 -31 -53 -2037 l3 -1842 23 -65 c66 -183 212 -328 387 -383 l70
-22 2075 0 2075 0 70 22 c175 55 321 200 387 383 l23 65 0 1875 0 1875 -23 65
c-65 180 -208 324 -381 383 l-66 22 -2065 2 c-1993 2 -2067 1 -2137 -17z
m2199 -859 l33 -29 0 -162 0 -162 -33 -29 c-20 -18 -43 -29 -62 -29 -19 0 -42
11 -62 29 l-33 29 0 162 0 162 33 29 c20 18 43 29 62 29 19 0 42 -11 62 -29z
m-708 -173 c13 -13 54 -75 90 -138 76 -131 84 -173 41 -215 -28 -29 -88 -34
-121 -10 -33 22 -164 260 -164 296 0 73 99 116 154 67z m1405 -24 c50 -42 44
-81 -35 -216 -83 -143 -97 -158 -147 -158 -49 0 -97 43 -97 87 0 34 130 269
163 295 32 26 80 22 116 -8z m-569 -440 c78 -20 210 -79 277 -125 164 -112
297 -304 349 -504 25 -97 25 -313 0 -410 -67 -257 -239 -463 -478 -574 -129
-60 -201 -75 -358 -75 -156 0 -229 15 -357 74 -195 91 -332 227 -422 422 -60
129 -75 201 -75 358 0 157 15 229 75 358 120 259 341 431 624 488 88 17 275
11 365 -12z m-1268 -90 c143 -83 158 -97 158 -147 0 -49 -43 -97 -87 -97 -34
0 -269 130 -295 163 -26 32 -22 80 8 116 42 50 81 44 216 -35z m2349 7 c37
-37 39 -88 7 -125 -13 -13 -75 -54 -138 -90 -131 -76 -173 -84 -215 -41 -30
30 -34 92 -7 124 9 12 71 53 137 91 139 80 171 86 216 41z m-2380 -669 c38
-42 38 -82 0 -124 l-29 -33 -162 0 -162 0 -29 33 c-18 20 -29 43 -29 61 0 32
32 78 64 92 11 4 88 7 169 6 l149 -2 29 -33z m2560 -40 c38 -42 38 -82 0 -124
l-29 -33 -162 0 -162 0 -29 33 c-18 20 -29 43 -29 61 0 32 32 78 64 92 11 4
88 7 169 6 l149 -2 29 -33z m-2416 -537 c29 -28 34 -88 10 -121 -22 -33 -260
-164 -296 -164 -44 0 -89 47 -89 94 0 49 26 74 160 150 131 76 173 84 215 41z
m2086 -76 c68 -39 132 -80 141 -92 26 -32 22 -80 -8 -116 -42 -50 -81 -44
-216 35 -143 83 -158 97 -158 147 0 49 43 97 87 97 18 0 78 -28 154 -71z
m-1670 -358 c19 -19 29 -40 29 -58 0 -34 -130 -269 -163 -295 -32 -26 -80 -22
-116 8 -50 42 -44 81 35 216 83 143 97 158 147 158 29 0 45 -7 68 -29z m1145
-6 c33 -22 164 -260 164 -296 0 -45 -47 -89 -95 -89 -49 0 -76 29 -153 166
-71 127 -78 168 -37 209 28 29 88 34 121 10z m-574 -154 l33 -29 0 -162 0
-162 -33 -29 c-42 -38 -82 -38 -124 0 l-33 29 0 162 0 162 33 29 c20 18 43 29
62 29 19 0 42 -11 62 -29z"/>
</g>
</svg>
