<svg version="1.1" xmlns="http://www.w3.org/2000/svg" xmlns:xlink="http://www.w3.org/1999/xlink" x="0px" y="0px" viewBox="0 0 1000 1000" enable-background="new 0 0 1000 1000" xml:space="preserve" class="fill-current">
<metadata> Svg Vector Icons : http://www.onlinewebfonts.com/icon </metadata>
<g><g><g><path d="M990,29.9v940.3c0,7-2.4,12.7-7.3,17.2c-4.9,4.5-10.8,6.8-17.8,6.8H35.1c-7,0-12.9-2.3-17.8-6.8c-4.9-4.5-7.3-10.3-7.3-17.2V29.9c0-7,2.4-12.7,7.3-17.2c4.9-4.5,10.8-6.8,17.8-6.8h929.8c7,0,12.9,2.3,17.8,6.8C987.6,17.1,990,22.9,990,29.9z M691.2,879.3v-349h127.5l5.2-125.4H691.2V313c0-17.4,3-31.2,8.9-41.3c5.9-10.1,20-14.8,42.3-14.1h78.4l3.1-117c-9.8-1.4-19.7-2.3-29.8-2.6c-10.1-0.3-19.3-0.9-27.7-1.6c-9.8-0.7-19.5-1-29.3-1c-30.6-2.1-56.9,1.2-78.9,9.9s-40.1,20.9-54.3,36.6c-14.3,15.7-24.9,33.6-31.9,53.8c-7,20.2-10.4,40.7-10.4,61.6v107.6h-89.9v125.4h89.9v349H691.2L691.2,879.3z"/></g></g><g></g><g></g><g></g><g></g><g></g><g></g><g></g><g></g><g></g><g></g><g></g><g></g><g></g><g></g><g></g></g>
</svg>