<?xml version="1.0" encoding="utf-8"?>
<!-- Svg Vector Icons : http://www.onlinewebfonts.com/icon -->
<!DOCTYPE svg PUBLIC "-//W3C//DTD SVG 1.1//EN" "http://www.w3.org/Graphics/SVG/1.1/DTD/svg11.dtd">
<svg version="1.1" xmlns="http://www.w3.org/2000/svg" xmlns:xlink="http://www.w3.org/1999/xlink" x="0px" y="0px" viewBox="0 0 1000 1000" enable-background="new 0 0 1000 1000" xml:space="preserve">
<metadata> Svg Vector Icons : http://www.onlinewebfonts.com/icon </metadata>
<g><path d="M901.9,606.3V168.1c0,0-93.3,0-220.4-51.9C567.4,69.6,507.8,17.8,500,10c-7.8,7.8-67.4,59.6-181.5,106.3c-129.6,51.9-220.4,51.9-220.4,51.9v438.1c0,0-7.8,98.5,140,217.8C386,945.9,484.5,987.4,500,990c18.1-7.8,114.1-46.7,261.9-165.9C904.5,704.8,901.9,606.3,901.9,606.3z M466.3,650.4L316,502.6l15.6-15.6l137.4,137.4l277.4-285.2l15.6,15.6L466.3,650.4z"/></g>
</svg>